<?xml version="1.0" encoding="utf-8"?>
<!-- Generator: Adobe Illustrator 21.1.0, SVG Export Plug-In . SVG Version: 6.00 Build 0)  -->
<svg version="1.1" id="Слой_1" xmlns="http://www.w3.org/2000/svg" xmlns:xlink="http://www.w3.org/1999/xlink" x="0px" y="0px"
	 viewBox="0 0 162 162" style="enable-background:new 0 0 162 162;" xml:space="preserve">
<style type="text/css">
	.st0{fill:#FFFFFF;}
	.st1{fill:#86DA2F;}
	.st2{fill:#24C2FF;}
	.st3{fill:#FFCB12;}
	.st4{fill:#0069DA;}
	.st5{fill:#FF4649;}
</style>
<g>
	<path class="st0" d="M53.5,89.5l-1-3H46l-1,3h-3.5L47.2,73h4L57,89.5H53.5z M47,83.5h4.5l-2.3-6.7L47,83.5z"/>
	<path class="st0" d="M58.5,89.5V72.3h3v17.1H58.5z"/>
	<path class="st0" d="M77.2,77.4c1.4,0,2.4,0.4,3.2,1.3c0.8,0.9,1.2,2.1,1.2,3.5v7.2h-3v-7c0-0.7-0.2-1.3-0.5-1.6
		c-0.3-0.4-0.8-0.6-1.5-0.6c-0.7,0-1.2,0.2-1.6,0.7c-0.4,0.5-0.6,1.1-0.6,2v6.6h-3v-7c0-0.7-0.2-1.3-0.5-1.6
		c-0.3-0.4-0.8-0.6-1.5-0.6c-0.7,0-1.2,0.2-1.6,0.7c-0.4,0.5-0.6,1.1-0.6,2v6.6h-3V77.7h3V79c0.7-1,1.8-1.6,3.3-1.6
		c1.5,0,2.5,0.6,3.2,1.7C74.5,78,75.7,77.4,77.2,77.4z"/>
	<path class="st0" d="M93.1,77.7h3v11.7h-3V88c-0.9,1.1-2.2,1.7-3.8,1.7c-1.5,0-2.9-0.6-4-1.8c-1.1-1.2-1.7-2.7-1.7-4.4
		s0.6-3.2,1.7-4.4s2.5-1.8,4-1.8c1.6,0,2.9,0.6,3.8,1.7V77.7z M87.6,86c0.6,0.6,1.4,0.9,2.3,0.9s1.7-0.3,2.3-0.9
		c0.6-0.6,0.9-1.4,0.9-2.4c0-1-0.3-1.8-0.9-2.3c-0.6-0.6-1.4-0.9-2.3-0.9s-1.7,0.3-2.3,0.9c-0.6,0.6-0.9,1.4-0.9,2.3
		S87,85.4,87.6,86z"/>
	<path class="st0" d="M102.3,86.4h6.2v3.1H99V73h3.2V86.4z"/>
	<path class="st0" d="M111.8,76.3c-0.5,0-0.9-0.2-1.3-0.5c-0.4-0.4-0.6-0.8-0.6-1.3c0-0.5,0.2-0.9,0.6-1.3s0.8-0.6,1.3-0.6
		s0.9,0.2,1.3,0.6s0.6,0.8,0.6,1.3c0,0.5-0.2,0.9-0.6,1.3C112.7,76.1,112.3,76.3,111.8,76.3z M110.3,89.5V77.7h3v11.7H110.3z"/>
	<path class="st0" d="M122.5,77.4c1.3,0,2.3,0.4,3.2,1.3c0.8,0.8,1.3,2.1,1.3,3.6v7.2h-3v-6.8c0-0.8-0.2-1.4-0.7-1.8
		c-0.4-0.4-1-0.7-1.7-0.7c-0.8,0-1.4,0.2-1.9,0.8s-0.7,1.2-0.7,2.2v6.3h-3V77.7h3V79C119.8,78,120.9,77.4,122.5,77.4z"/>
	<path class="st0" d="M137.3,77.7h3v11.7h-3v-1.3c-0.8,1.1-1.9,1.6-3.5,1.6c-1.3,0-2.3-0.4-3.2-1.3c-0.8-0.8-1.2-2.1-1.2-3.6v-7.2h3
		v6.8c0,0.8,0.2,1.4,0.6,1.8s1,0.6,1.7,0.6c0.8,0,1.4-0.2,1.9-0.7s0.7-1.2,0.7-2.2L137.3,77.7L137.3,77.7z"/>
	<path class="st0" d="M153.9,89.5h-3.5l-2.5-3.6l-2.6,3.6h-3.5l4.3-6l-4.1-5.7h3.5l2.4,3.3l2.3-3.3h3.5l-4.1,5.7L153.9,89.5z"/>
	<path class="st1" d="M35,82.8c1.2-0.1,2.2,0.7,2.3,1.9c0.1,1.3-0.8,2.3-2,2.4c-1.2,0.1-2.2-0.8-2.3-2C32.9,83.9,33.7,82.9,35,82.8z
		"/>
	<path class="st2" d="M20.2,92.8c0-1.2,0.9-2.2,2.1-2.2s2.2,1,2.2,2.2c0,1.1-0.9,2.1-2,2.2C21,95,20.2,94.1,20.2,92.8z"/>
	<path class="st3" d="M23.5,79.1c-0.2,0.1-0.3,0-0.3-0.2c-1.7-3.2-1.2-7.3,1.8-9.8c0.8-0.7,2.3-0.8,3-0.1c0.3,0.2,0.3,0.5,0.4,0.8
		c0.1,0.7,0.2,1.4,0.7,2c0.5,0.6,1.2,0.8,1.9,0.8c0.7,0,1.3-0.1,1.7,0.7c0.2,0.4,0.1,2.1-0.2,2.4c-0.2,0.1-0.3,0-0.5,0
		c-1.1-0.4-2.2-0.4-3.3-0.2c-0.4,0-0.6,0-0.6-0.5c0-0.7-0.2-1.4-0.6-2c-0.7-1.3-2-1.3-2.9-0.1c-0.7,0.9-0.9,2.1-1.1,3.2
		C23.4,77,23.4,78.1,23.5,79.1C23.5,79.1,23.4,79.1,23.5,79.1z"/>
	<path class="st1" d="M24.7,79.8c-0.1-0.1,0-0.3,0.1-0.4c2.7-2.4,6.7-2.9,9.8-0.5c0.8,0.7,1.3,2,0.9,2.8c-0.2,0.3-0.4,0.5-0.7,0.6
		c-0.7,0.3-1.3,0.6-1.7,1.2c-0.4,0.6-0.5,1.3-0.3,2.1c0.1,0.6,0.4,1.3-0.2,1.8c-0.3,0.3-1.9,0.6-2.3,0.3c-0.2-0.1-0.1-0.3-0.1-0.5
		c0.1-1.2-0.1-2.3-0.6-3.3c-0.1-0.4-0.1-0.6,0.3-0.7c0.7-0.2,1.3-0.5,1.7-1c1-1,0.8-2.3-0.6-2.8c-1.1-0.5-2.2-0.4-3.3-0.3
		C26.6,79.2,25.6,79.5,24.7,79.8L24.7,79.8z"/>
	<path class="st2" d="M24,81c0.1-0.1,0.2-0.1,0.4,0c3.1,1.9,4.7,5.6,3.3,9.2c-0.4,0.9-1.6,1.9-2.5,1.6c-0.4-0.1-0.6-0.3-0.8-0.5
		c-0.4-0.6-0.9-1.1-1.6-1.3c-0.8-0.2-1.4-0.1-2.1,0.3c-0.6,0.3-1.1,0.8-1.8,0.3c-0.4-0.2-1.1-1.7-1-2.2c0.1-0.2,0.3-0.2,0.5-0.2
		c1.2-0.2,2.1-0.8,3-1.5c0.3-0.2,0.5-0.2,0.8,0.1c0.4,0.6,0.8,1,1.5,1.4c1.2,0.7,2.4,0.1,2.5-1.3c0.1-1.2-0.3-2.2-0.7-3.2
		C25.1,82.8,24.6,81.9,24,81L24,81z"/>
	<path class="st4" d="M22.5,81.3c-0.2,0.9-0.6,1.8-1.2,2.6c-1.7,2.5-4.1,3.6-7.1,3.3c-1.1-0.1-2-1-2.1-1.9c0-0.4,0-0.7,0.3-0.9
		c0.3-0.4,0.6-0.8,0.8-1.3c0.3-1-0.1-1.9-0.8-2.6c-1-1-0.9-2,0.3-2.7c0.1-0.1,0.3-0.2,0.5-0.3c0.3-0.1,0.5-0.1,0.6,0.2
		c0.4,1.1,1.3,1.9,2.2,2.5c0.3,0.3,0.3,0.5,0,0.8c-0.6,0.6-0.9,1.4-0.9,2.2c-0.1,1,0.5,1.7,1.5,1.7c0.7,0,1.3-0.2,1.8-0.5
		c1.5-0.8,2.6-1.8,3.7-3C22.3,81.3,22.4,81.3,22.5,81.3z"/>
	<path class="st5" d="M14.9,71.5c0.1,0,0.3,0,0.6,0.1c1.7,0.3,2.8-0.3,3.4-1.9c0.4-1.1,1.2-1.4,2.2-0.8c0,0,0,0,0.1,0
		c1.1,0.6,1.1,0.7,0.4,1.6c-0.6,0.8-0.8,1.6-1,2.5c-0.1,0.5-0.3,0.6-0.8,0.4c-0.8-0.3-1.5-0.3-2.3,0c-0.9,0.3-1.3,1.1-1,2
		c0.4,1.2,1.4,1.7,2.3,2.3s1.9,0.9,2.9,1.4c0.1,0,0.4,0,0.3,0.3c0,0.1-0.2,0.1-0.4,0.1c-2.1,0.1-4.1-0.2-5.8-1.6
		c-1.5-1.3-2.7-2.8-2.5-5C13.4,72.1,14,71.6,14.9,71.5z"/>
	<path class="st4" d="M11,84.6c-1.1,0.1-2.3-0.8-2.3-2c-0.1-1.1,0.8-2.3,1.9-2.3c1.2-0.1,2.3,0.7,2.4,1.8
		C13.1,83.2,12.4,84.5,11,84.6z"/>
	<path class="st3" d="M30.7,67.9c1.2-0.1,2.3,0.8,2.4,2c0.1,1.1-0.8,2.2-2,2.3c-1.2,0.1-2.3-0.8-2.4-2C28.6,69.1,29.5,68,30.7,67.9z
		"/>
	<path class="st5" d="M18.5,68.8c0.1,1.2-0.7,2.3-2,2.4c-1.1,0.1-2.2-0.8-2.3-1.8C14,68.1,14.8,67.1,16,67
		C17.2,66.9,18.3,67.8,18.5,68.8z"/>
</g>
</svg>
