<?xml version="1.0" encoding="utf-8"?>
<!-- Generator: Adobe Illustrator 21.1.0, SVG Export Plug-In . SVG Version: 6.00 Build 0)  -->
<svg version="1.1" id="Слой_1" xmlns="http://www.w3.org/2000/svg" xmlns:xlink="http://www.w3.org/1999/xlink" x="0px" y="0px"
	 viewBox="0 0 24 24" style="enable-background:new 0 0 24 24;" xml:space="preserve">
<style type="text/css">
	.st0{fill:#86DA2F;}
	.st1{fill:#24C2FF;}
	.st2{fill:#FFCB12;}
	.st3{fill:#0069DA;}
	.st4{fill:#FF4649;}
</style>
<title>Монтажная область 1</title>
<g>
	<path class="st0" d="M21,13.4c0.9-0.1,1.7,0.5,1.7,1.4c0.1,0.9-0.6,1.7-1.5,1.8c-0.9,0.1-1.7-0.6-1.7-1.5
		C19.4,14.2,20.1,13.5,21,13.4z"/>
	<path class="st1" d="M9.9,20.8c0-0.9,0.7-1.6,1.5-1.6c0.8,0,1.7,0.8,1.7,1.7c0,0.8-0.7,1.6-1.5,1.6C10.6,22.5,9.9,21.9,9.9,20.8z"
		/>
	<path class="st2" d="M12.4,10.6c-0.1,0.1-0.2,0-0.2-0.1C10.8,8,11.2,5,13.5,3.1c0.6-0.5,1.7-0.6,2.2-0.1C15.9,3.2,16,3.4,16,3.7
		c0.1,0.5,0.2,1.1,0.5,1.5c0.4,0.5,0.9,0.6,1.4,0.6c0.5,0,1-0.1,1.3,0.5c0.2,0.3,0.1,1.5-0.2,1.8c-0.1,0.1-0.2,0-0.4,0
		c-0.8-0.3-1.7-0.3-2.5-0.2c-0.3,0-0.4,0-0.4-0.4c0-0.5-0.1-1-0.4-1.5c-0.5-0.9-1.5-1-2.1-0.1c-0.5,0.7-0.7,1.5-0.8,2.4
		C12.3,9,12.4,9.8,12.4,10.6C12.4,10.6,12.4,10.6,12.4,10.6z"/>
	<path class="st0" d="M13.3,11.1c-0.1-0.1,0-0.2,0.1-0.3c2-1.8,5-2.2,7.3-0.4c0.6,0.5,1,1.5,0.7,2.1c-0.1,0.2-0.3,0.4-0.5,0.4
		c-0.5,0.2-0.9,0.4-1.3,0.9c-0.3,0.5-0.4,1-0.2,1.5c0.1,0.5,0.3,0.9-0.2,1.4c-0.2,0.2-1.4,0.5-1.8,0.2c-0.1-0.1-0.1-0.2-0.1-0.4
		c0.1-0.9-0.1-1.7-0.4-2.5c-0.1-0.3-0.1-0.4,0.2-0.5c0.5-0.1,0.9-0.4,1.3-0.7c0.8-0.7,0.6-1.7-0.4-2.1c-0.8-0.4-1.7-0.3-2.5-0.2
		C14.7,10.7,14,10.9,13.3,11.1L13.3,11.1z"/>
	<path class="st1" d="M12.8,12c0.1-0.1,0.2-0.1,0.3,0c2.3,1.4,3.5,4.2,2.5,6.9c-0.3,0.7-1.2,1.4-1.9,1.2c-0.3-0.1-0.4-0.2-0.6-0.4
		c-0.3-0.4-0.7-0.8-1.2-1c-0.6-0.2-1.1-0.1-1.5,0.2C10,19.2,9.5,19.5,9,19.2c-0.3-0.2-0.8-1.3-0.7-1.6c0.1-0.1,0.2-0.1,0.4-0.1
		c0.9-0.1,1.6-0.6,2.3-1.1c0.2-0.2,0.4-0.2,0.6,0.1c0.3,0.4,0.6,0.8,1.1,1c0.9,0.5,1.8,0.1,1.9-1c0.1-0.9-0.2-1.7-0.5-2.4
		C13.6,13.3,13.2,12.7,12.8,12L12.8,12z"/>
	<path class="st3" d="M11.7,12.2c-0.1,0.7-0.5,1.4-0.9,2c-1.3,1.9-3.1,2.7-5.3,2.5c-0.8-0.1-1.5-0.7-1.5-1.4c0-0.3,0-0.5,0.2-0.7
		c0.2-0.3,0.5-0.6,0.6-1c0.2-0.8-0.1-1.4-0.6-2c-0.8-0.8-0.7-1.5,0.2-2c0.1-0.1,0.2-0.1,0.4-0.2c0.2-0.1,0.4-0.1,0.5,0.1
		c0.3,0.8,0.9,1.4,1.7,1.9C7,11.6,7,11.7,6.8,12c-0.4,0.5-0.7,1-0.7,1.7c-0.1,0.8,0.4,1.3,1.2,1.3c0.5,0,0.9-0.2,1.4-0.4
		c1.1-0.6,1.9-1.4,2.7-2.2C11.5,12.3,11.5,12.2,11.7,12.2z"/>
	<path class="st4" d="M5.9,4.9c0.1,0,0.2,0,0.4,0.1c1.3,0.2,2.1-0.2,2.5-1.4c0.3-0.8,0.9-1.1,1.7-0.6c0,0,0,0,0.1,0
		c0.8,0.5,0.8,0.5,0.3,1.2c-0.4,0.6-0.6,1.2-0.7,1.9C10.1,6.4,10,6.4,9.6,6.3C9,6.1,8.4,6.1,7.9,6.3C7.2,6.5,6.9,7.1,7.1,7.8
		C7.4,8.6,8.2,9,8.8,9.5c0.7,0.5,1.4,0.7,2.2,1c0.1,0,0.3,0,0.2,0.2c0,0.1-0.2,0.1-0.3,0.1c-1.6,0.1-3.1-0.2-4.3-1.2
		c-1.2-0.9-2-2.1-1.9-3.7C4.9,5.3,5.2,5,5.9,4.9z"/>
	<path class="st3" d="M3,14.7c-0.8,0.1-1.7-0.6-1.8-1.5c-0.1-0.8,0.6-1.7,1.4-1.8c0.9-0.1,1.8,0.5,1.8,1.4C4.6,13.7,4.1,14.7,3,14.7
		z"/>
	<path class="st2" d="M17.8,2.2c0.9-0.1,1.7,0.6,1.8,1.5c0.1,0.8-0.6,1.7-1.5,1.7c-0.9,0.1-1.7-0.6-1.8-1.5
		C16.3,3.1,16.9,2.3,17.8,2.2z"/>
	<path class="st4" d="M8.6,2.9c0.1,0.9-0.5,1.7-1.5,1.8C6.3,4.8,5.5,4.1,5.4,3.4c-0.1-1,0.5-1.8,1.4-1.9C7.7,1.4,8.5,2.1,8.6,2.9z"
		/>
</g>
</svg>
