<?xml version="1.0" encoding="utf-8"?>
<!-- Generator: Adobe Illustrator 21.1.0, SVG Export Plug-In . SVG Version: 6.00 Build 0)  -->
<svg version="1.1" id="Слой_1" xmlns="http://www.w3.org/2000/svg" xmlns:xlink="http://www.w3.org/1999/xlink" x="0px" y="0px"
	 viewBox="0 0 24 24" style="enable-background:new 0 0 24 24;" xml:space="preserve">
<style type="text/css">
	.st0{fill:#86DA2F;}
	.st1{fill:#24C2FF;}
	.st2{fill:#FFCB12;}
	.st3{fill:#0069DA;}
	.st4{fill:#FF4649;}
</style>
<title>Монтажная область 1</title>
<g>
	<path class="st0" d="M21.1,13.5c0.9-0.1,1.7,0.5,1.7,1.4c0.1,0.9-0.6,1.7-1.5,1.8c-0.9,0.1-1.7-0.6-1.7-1.5
		C19.5,14.3,20.1,13.6,21.1,13.5z"/>
	<path class="st1" d="M10,21c0-0.9,0.7-1.6,1.5-1.6c0.8,0,1.7,0.8,1.7,1.7c0,0.8-0.7,1.6-1.5,1.6C10.7,22.6,10,22,10,21z"/>
	<path class="st2" d="M12.5,10.7c-0.1,0.1-0.2,0-0.2-0.1c-1.3-2.4-0.9-5.5,1.4-7.3c0.6-0.5,1.7-0.6,2.2-0.1c0.2,0.2,0.2,0.4,0.3,0.6
		c0.1,0.5,0.2,1.1,0.5,1.5c0.4,0.5,0.9,0.6,1.4,0.6c0.5,0,1-0.1,1.3,0.5c0.2,0.3,0.1,1.5-0.2,1.8c-0.1,0.1-0.2,0-0.4,0
		C18,7.8,17.2,7.8,16.4,8c-0.3,0-0.4,0-0.4-0.4c0-0.5-0.1-1-0.4-1.5C15,5.2,14,5.1,13.4,6c-0.5,0.7-0.7,1.5-0.8,2.4
		C12.4,9.2,12.4,9.9,12.5,10.7C12.5,10.7,12.4,10.7,12.5,10.7z"/>
	<path class="st0" d="M13.4,11.2c-0.1-0.1,0-0.2,0.1-0.3c2-1.8,5-2.2,7.3-0.4c0.6,0.5,1,1.5,0.7,2.1c-0.1,0.2-0.3,0.4-0.5,0.4
		c-0.5,0.2-0.9,0.4-1.3,0.9c-0.3,0.5-0.4,1-0.2,1.5c0.1,0.5,0.3,0.9-0.2,1.4c-0.2,0.2-1.4,0.5-1.8,0.2c-0.1-0.1-0.1-0.2-0.1-0.4
		c0.1-0.9-0.1-1.7-0.4-2.5c-0.1-0.3-0.1-0.4,0.2-0.5c0.5-0.1,0.9-0.4,1.3-0.7c0.8-0.7,0.6-1.7-0.4-2.1c-0.8-0.4-1.7-0.3-2.5-0.2
		C14.8,10.8,14.1,11,13.4,11.2L13.4,11.2z"/>
	<path class="st1" d="M12.9,12.1c0.1-0.1,0.2-0.1,0.3,0c2.3,1.4,3.5,4.2,2.5,6.9c-0.3,0.7-1.2,1.4-1.9,1.2c-0.3-0.1-0.4-0.2-0.6-0.4
		c-0.3-0.4-0.7-0.8-1.2-1c-0.6-0.2-1.1-0.1-1.5,0.2c-0.4,0.2-0.8,0.6-1.4,0.2c-0.3-0.2-0.8-1.3-0.7-1.6c0.1-0.1,0.2-0.1,0.4-0.1
		c0.9-0.1,1.6-0.6,2.3-1.1c0.2-0.2,0.4-0.2,0.6,0.1c0.3,0.4,0.6,0.8,1.1,1c0.9,0.5,1.8,0.1,1.9-1c0.1-0.9-0.2-1.7-0.5-2.4
		C13.7,13.4,13.3,12.8,12.9,12.1L12.9,12.1z"/>
	<path class="st3" d="M11.8,12.4c-0.1,0.7-0.5,1.4-0.9,2c-1.3,1.9-3.1,2.7-5.3,2.5C4.8,16.7,4.1,16,4,15.4c0-0.3,0-0.5,0.2-0.7
		c0.2-0.3,0.5-0.6,0.6-1c0.2-0.8-0.1-1.4-0.6-2c-0.8-0.8-0.7-1.5,0.2-2c0.1-0.1,0.2-0.1,0.4-0.2C5,9.4,5.2,9.4,5.2,9.6
		c0.3,0.8,0.9,1.4,1.7,1.9c0.2,0.2,0.2,0.4,0,0.6c-0.4,0.5-0.7,1-0.7,1.7C6.2,14.5,6.6,15,7.4,15c0.5,0,0.9-0.2,1.4-0.4
		c1.1-0.6,1.9-1.4,2.7-2.2C11.6,12.4,11.6,12.3,11.8,12.4z"/>
	<path class="st4" d="M6,5C6.1,5,6.3,5,6.4,5C7.7,5.3,8.5,4.8,9,3.6C9.3,2.8,9.8,2.5,10.6,3c0,0,0,0,0.1,0c0.8,0.5,0.8,0.5,0.3,1.2
		c-0.4,0.6-0.6,1.2-0.7,1.9c-0.1,0.4-0.2,0.5-0.6,0.3c-0.6-0.2-1.2-0.2-1.8,0C7.3,6.6,7,7.2,7.2,7.9c0.3,0.9,1.1,1.3,1.7,1.7
		c0.7,0.5,1.4,0.7,2.2,1c0.1,0,0.3,0,0.2,0.2c0,0.1-0.2,0.1-0.3,0.1C9.5,11,7.9,10.8,6.7,9.7C5.6,8.8,4.7,7.6,4.9,6
		C5,5.5,5.3,5.1,6,5z"/>
	<path class="st3" d="M3.1,14.8c-0.8,0.1-1.7-0.6-1.8-1.5c-0.1-0.8,0.6-1.7,1.4-1.8c0.9-0.1,1.8,0.5,1.8,1.4
		C4.7,13.8,4.2,14.8,3.1,14.8z"/>
	<path class="st2" d="M17.9,2.3c0.9-0.1,1.7,0.6,1.8,1.5c0.1,0.8-0.6,1.7-1.5,1.7c-0.9,0.1-1.7-0.6-1.8-1.5S17,2.4,17.9,2.3z"/>
	<path class="st4" d="M8.7,3c0.1,0.9-0.5,1.7-1.5,1.8C6.4,4.9,5.6,4.3,5.5,3.5c-0.1-1,0.5-1.8,1.4-1.9C7.8,1.5,8.6,2.2,8.7,3z"/>
</g>
</svg>
